<svg width="24" height="24" viewBox="0 0 24 24" fill="none" xmlns="http://www.w3.org/2000/svg">
<path d="M19.4967 7.98905L11.9997 15.297L4.50275 7.98905C4.36881 7.8582 4.18899 7.78495 4.00175 7.78495C3.8145 7.78495 3.63469 7.8582 3.50075 7.98905C3.43589 8.05259 3.38437 8.12844 3.34919 8.21215C3.31402 8.29586 3.2959 8.38575 3.2959 8.47655C3.2959 8.56734 3.31402 8.65723 3.34919 8.74094C3.38437 8.82465 3.43589 8.9005 3.50075 8.96404L11.4762 16.74C11.6163 16.8766 11.8042 16.953 11.9997 16.953C12.1953 16.953 12.3832 16.8766 12.5232 16.74L20.4987 8.96555C20.5641 8.90195 20.616 8.82592 20.6514 8.74193C20.6869 8.65794 20.7051 8.56771 20.7051 8.47655C20.7051 8.38538 20.6869 8.29515 20.6514 8.21116C20.616 8.12717 20.5641 8.05114 20.4987 7.98754C20.3648 7.8567 20.185 7.78345 19.9977 7.78345C19.8105 7.78345 19.6307 7.8567 19.4967 7.98754V7.98905Z" fill="black"/>
</svg>
