<svg width="20" height="20" viewBox="0 0 20 20" fill="none" xmlns="http://www.w3.org/2000/svg">
<path d="M3.33301 13.0005C3.5152 13.0005 3.66699 13.1513 3.66699 13.3335C3.66699 13.5157 3.5152 13.6665 3.33301 13.6665C3.17365 13.6663 3.03815 13.5509 3.00684 13.3999L3 13.3335C3 13.1514 3.15096 13.0007 3.33301 13.0005ZM6.66699 13.0005H16.667C16.849 13.0007 17 13.1514 17 13.3335C17 13.5156 16.849 13.6663 16.667 13.6665H6.66699C6.50748 13.6665 6.37115 13.551 6.33984 13.3999L6.33301 13.3335C6.33301 13.1513 6.4848 13.0005 6.66699 13.0005ZM3.33301 9.6665C3.5152 9.6665 3.66699 9.8183 3.66699 10.0005C3.66681 10.1825 3.51509 10.3335 3.33301 10.3335C3.17376 10.3333 3.03827 10.2177 3.00684 10.0669L3 10.0005C3 9.81841 3.15096 9.66668 3.33301 9.6665ZM6.66699 9.6665H16.667C16.849 9.66668 17 9.81841 17 10.0005C16.9998 10.1824 16.8489 10.3333 16.667 10.3335H6.66699C6.50758 10.3335 6.37128 10.2179 6.33984 10.0669L6.33301 10.0005C6.33301 9.8183 6.4848 9.6665 6.66699 9.6665ZM3.33301 6.3335C3.51509 6.3335 3.66681 6.48446 3.66699 6.6665C3.66699 6.84869 3.5152 7.00049 3.33301 7.00049C3.17387 7.00033 3.03839 6.88457 3.00684 6.73389L3 6.6665C3.00018 6.48457 3.15107 6.33368 3.33301 6.3335ZM6.66699 6.3335H16.667C16.8489 6.33368 16.9998 6.48457 17 6.6665C17 6.84859 16.849 7.00031 16.667 7.00049H6.66699C6.50769 7.00049 6.3714 6.8847 6.33984 6.73389L6.33301 6.6665C6.33319 6.48446 6.48491 6.3335 6.66699 6.3335Z" fill="#0B60B0" stroke="white"/>
</svg>
