<svg width="20" height="20" viewBox="0 0 20 20" fill="none" xmlns="http://www.w3.org/2000/svg">
<path d="M15.8333 9.16667H6.525L10.5917 5.1C10.9167 4.775 10.9167 4.24167 10.5917 3.91667C10.5146 3.83942 10.423 3.77813 10.3222 3.73631C10.2214 3.69449 10.1133 3.67297 10.0042 3.67297C9.89503 3.67297 9.78696 3.69449 9.68615 3.73631C9.58534 3.77813 9.49376 3.83942 9.41667 3.91667L3.925 9.40834C3.84775 9.48543 3.78646 9.577 3.74464 9.67782C3.70282 9.77863 3.6813 9.8867 3.6813 9.99584C3.6813 10.105 3.70282 10.213 3.74464 10.3139C3.78646 10.4147 3.84775 10.5062 3.925 10.5833L9.41667 16.075C9.49382 16.1522 9.58541 16.2134 9.68621 16.2551C9.78702 16.2969 9.89506 16.3184 10.0042 16.3184C10.1133 16.3184 10.2213 16.2969 10.3221 16.2551C10.4229 16.2134 10.5145 16.1522 10.5917 16.075C10.6688 15.9979 10.73 15.9063 10.7718 15.8055C10.8135 15.7047 10.835 15.5966 10.835 15.4875C10.835 15.3784 10.8135 15.2704 10.7718 15.1695C10.73 15.0687 10.6688 14.9772 10.5917 14.9L6.525 10.8333H15.8333C16.2917 10.8333 16.6667 10.4583 16.6667 10C16.6667 9.54167 16.2917 9.16667 15.8333 9.16667Z" fill="#3AA6B9"/>
</svg>
