<svg width="16" height="16" viewBox="0 0 16 16" fill="none" xmlns="http://www.w3.org/2000/svg">
<path fill-rule="evenodd" clip-rule="evenodd" d="M13.3332 9.3335C13.4468 9.33344 13.5585 9.30435 13.6577 9.249C13.7569 9.19365 13.8403 9.11387 13.9 9.01723C13.9597 8.9206 13.9937 8.8103 13.9988 8.69683C14.0039 8.58335 13.9799 8.47044 13.9292 8.36883L12.7452 6.00016L13.9292 3.6315C13.9799 3.52988 14.0039 3.41698 13.9988 3.3035C13.9937 3.19002 13.9597 3.07973 13.9 2.98309C13.8403 2.88645 13.7569 2.80668 13.6577 2.75133C13.5585 2.69598 13.4468 2.66689 13.3332 2.66683H5.99984V2.00016C5.99984 1.82335 5.9296 1.65378 5.80457 1.52876C5.67955 1.40373 5.50998 1.3335 5.33317 1.3335C5.15636 1.3335 4.98679 1.40373 4.86177 1.52876C4.73674 1.65378 4.6665 1.82335 4.6665 2.00016V14.0002C4.6665 14.177 4.73674 14.3465 4.86177 14.4716C4.98679 14.5966 5.15636 14.6668 5.33317 14.6668C5.50998 14.6668 5.67955 14.5966 5.80457 14.4716C5.9296 14.3465 5.99984 14.177 5.99984 14.0002V9.3335H13.3332Z" fill="white"/>
</svg>
