<svg width="20" height="20" viewBox="0 0 20 20" fill="none" xmlns="http://www.w3.org/2000/svg">
<path d="M13.9258 8.17334L13.9199 8.1792L11.8213 6.07959L10.8867 5.14502L10.1748 5.85889L10.1357 5.90674C10.0578 6.02498 10.0708 6.1855 10.1748 6.28955L13.71 9.82471L13.7578 9.86377C13.8761 9.94214 14.0374 9.92893 14.1416 9.82471L16.959 7.00635L16.0303 6.07861M13.9258 8.17334L13.9316 8.1792M13.9258 8.17334L13.9316 8.1792M13.9258 8.17334L16.0254 6.07373M13.9316 8.1792L16.0303 6.07861M13.9316 8.1792L16.0303 6.07959L16.0254 6.07373M16.0303 6.07861L16.0352 6.07373M16.0303 6.07861L16.0254 6.07373M16.0254 6.07373L16.0303 6.06885M16.0352 6.07373L16.9639 7.00146L17.6768 6.28955L17.7158 6.2417C17.7938 6.12348 17.7808 5.96298 17.6768 5.85889L16.9639 5.146M16.0352 6.07373L16.9639 5.146M16.0352 6.07373L16.0303 6.06885M16.9639 5.146L16.9697 5.14014L16.9639 5.13428L16.958 5.14014M16.9639 5.146L16.958 5.14014M16.958 5.14014L16.0303 6.06885M16.958 5.14014L14.8594 3.04053L13.9258 3.9751L13.9316 3.96924L16.0303 6.06885M3.125 10.6323H9.0625C9.23065 10.6323 9.36698 10.7689 9.36719 10.937V16.8745C9.36719 17.0428 9.23078 17.1792 9.0625 17.1792H3.125C2.95672 17.1792 2.82031 17.0428 2.82031 16.8745V10.937C2.82052 10.7689 2.95685 10.6323 3.125 10.6323ZM10.9375 10.6323H16.875C17.0432 10.6323 17.1795 10.7689 17.1797 10.937V16.8745C17.1797 17.0428 17.0433 17.1792 16.875 17.1792H10.9375C10.7692 17.1792 10.6328 17.0428 10.6328 16.8745V10.937C10.633 10.7689 10.7693 10.6323 10.9375 10.6323ZM4.14062 11.9526H4.13281V15.8589H4.14062V15.8667H8.04688V15.8589H8.05469V11.9526H8.04688V11.9448H4.14062V11.9526ZM11.9531 11.9526H11.9453V15.8589H11.9531V15.8667H15.8594V15.8589H15.8672V11.9526H15.8594V11.9448H11.9531V11.9526ZM3.125 2.81982H8.56152L9.36719 3.62451V9.06201C9.36719 9.23028 9.23078 9.3667 9.0625 9.3667H3.125C2.95672 9.3667 2.82031 9.23028 2.82031 9.06201V3.12451C2.82052 2.95641 2.95685 2.81982 3.125 2.81982ZM4.14062 4.14014H4.13281V8.04639H4.14062V8.0542H8.04688V8.04639H8.05469V4.14014H8.04688V4.13232H4.14062V4.14014ZM13.71 2.32275C13.8141 2.21863 13.9755 2.20558 14.0938 2.28369L14.1416 2.32275L14.8535 3.03467L13.9199 3.96924L11.8213 6.06885L10.8926 5.14014L13.71 2.32275ZM9.0625 2.81982C9.23065 2.81982 9.36698 2.95641 9.36719 3.12451V3.61475L8.57227 2.81982H9.0625Z" fill="#5D5D5D" stroke="#5D5D5D" stroke-width="0.015625"/>
</svg>
